<?xml version="1.0" encoding="UTF-8"?>
<svg xmlns="http://www.w3.org/2000/svg" version="1.1" viewBox="0 0 1838.2 366.9">
  <defs>
    <style>
      .cls-1 {
        isolation: isolate;
      }

      .cls-2 {
        fill: #fff;
      }
    </style>
  </defs>
  <!-- Generator: Adobe Illustrator 28.6.0, SVG Export Plug-In . SVG Version: 1.2.0 Build 709)  -->
  <g>
    <g id="Layer_1">
      <g id="Layer_1-2" data-name="Layer_1">
        <g id="Layer_1-2">
          <g>
            <circle class="cls-2" cx="201.4" cy="184" r="37.1"/>
            <path class="cls-2" d="M201.9,33.1c-83.1-.3-150.6,66.2-151.4,149.3-.3,28.1,7.1,54.4,20.2,77,3.5-6,7.4-11.8,11.6-17.3,4.4-5.7,9.3-11,14.4-16h0c8.4-8.1,12.6-19.6,11.3-31.1-.4-3.6-.6-7.3-.6-11,0-51.8,42-93.8,93.8-93.8s93.8,42,93.8,93.8-.2,7.4-.6,11c-1.3,11.5,2.9,23,11.3,31h.1c5.2,5.1,10,10.4,14.4,16.1,4.3,5.5,8.2,11.2,11.6,17.3,12.8-22.2,20.2-48,20.2-75.4,0-83.2-67.3-150.6-150.4-150.9h.2,0Z"/>
            <path class="cls-2" d="M201.4,56.8c79.3,0,144.4,61.2,150.4,139,.3-3.9.5-7.8.5-11.8,0-83.2-67.3-150.6-150.4-150.9-83.1-.3-150.6,66.2-151.4,149.3,0,4.5,0,9,.5,13.4C57,118,122.1,56.7,201.4,56.7h0Z"/>
            <path class="cls-2" d="M220.2,295.2v-58.2c-5.9,2.1-12.2,3.2-18.8,3.2s-.7,0-1,0c-9.8-.2-17.8,7.6-17.8,17.4h0v58.6c0,10.3,8.3,18.7,18.6,18.7h.2c6.4,0,12.6-.4,18.8-1.2,33.4-4.1,63.4-19.2,86.3-41.5-4.8-12.4-11.8-23.8-20.5-33.7-16.7,19-39.7,32.2-65.8,36.6h0Z"/>
          </g>
          <g class="cls-1">
            <g class="cls-1">
              <g class="cls-1">
                <path class="cls-2" d="M393.3,259.6l22.1,35.1,22.2-35.1h5.1l-25,39.5v23.9h-4.6v-24.1l-24.9-39.3h5Z"/>
                <path class="cls-2" d="M472,323.4c-4.4,0-8.4-.9-12.1-2.7-3.6-1.8-6.8-4.2-9.4-7.3-2.6-3-4.6-6.5-6.1-10.3s-2.1-7.8-2.1-11.8.7-8.3,2.2-12.1c1.5-3.8,3.6-7.3,6.3-10.3,2.7-3,5.9-5.4,9.5-7.1,3.6-1.8,7.5-2.6,11.7-2.6s8.5.9,12.1,2.8c3.6,1.8,6.7,4.3,9.3,7.4,2.6,3.1,4.6,6.5,6.1,10.4,1.4,3.8,2.1,7.7,2.1,11.6s-.7,8.3-2.2,12.2c-1.5,3.8-3.6,7.3-6.3,10.3-2.7,3-5.9,5.4-9.5,7.1-3.6,1.7-7.5,2.6-11.7,2.6ZM446.9,291.3c0,3.6.6,7.1,1.9,10.4,1.2,3.3,3,6.3,5.2,8.9,2.2,2.6,4.9,4.7,7.9,6.3,3.1,1.5,6.4,2.3,10.1,2.3s7.2-.8,10.3-2.4c3.1-1.6,5.7-3.8,7.9-6.4,2.2-2.7,3.9-5.7,5-9,1.2-3.3,1.7-6.7,1.7-10.1s-.6-7.1-1.8-10.4c-1.2-3.3-3-6.3-5.2-8.9-2.3-2.6-4.9-4.7-8-6.3-3.1-1.5-6.4-2.3-10-2.3s-7.3.8-10.4,2.4c-3.1,1.6-5.7,3.8-7.9,6.4-2.2,2.7-3.9,5.7-5.1,9-1.2,3.3-1.8,6.7-1.8,10.1Z"/>
                <path class="cls-2" d="M537.7,323.4c-5.1,0-9.3-.9-12.7-2.7s-6.1-4.2-8.1-7.3c-2-3.1-3.5-6.5-4.4-10.3-.9-3.8-1.3-7.7-1.3-11.7v-31.9h4.6v31.9c0,3.5.4,6.8,1.1,10.2.7,3.3,1.9,6.3,3.5,9,1.6,2.6,3.9,4.7,6.7,6.3,2.8,1.5,6.4,2.3,10.6,2.3s7.8-.8,10.7-2.4c2.8-1.6,5.1-3.7,6.7-6.4,1.6-2.6,2.8-5.6,3.5-8.9.7-3.3,1-6.7,1-10v-31.9h4.6v31.9c0,4.2-.5,8.3-1.4,12.1-.9,3.8-2.4,7.2-4.5,10.2-2.1,3-4.8,5.3-8.1,7.1-3.3,1.7-7.4,2.6-12.3,2.6Z"/>
                <path class="cls-2" d="M577.9,323v-63.4h26.3c2.7,0,5.2.6,7.5,1.7,2.2,1.1,4.2,2.6,5.8,4.5,1.6,1.9,2.9,4,3.8,6.3.9,2.3,1.4,4.7,1.4,7.1s-.6,6.1-1.9,8.8c-1.2,2.7-3,5-5.2,6.9-2.2,1.8-4.8,3-7.8,3.4l15.8,24.6h-5.3l-15.4-23.9h-20.5v23.9h-4.6ZM582.4,294.9h22.2c2.7,0,5.1-.7,7.1-2.2,2-1.5,3.6-3.4,4.7-5.8s1.7-4.9,1.7-7.6-.6-5.3-1.9-7.6c-1.3-2.4-3-4.3-5.1-5.7-2.1-1.5-4.5-2.2-7.1-2.2h-21.6v31.2Z"/>
                <path class="cls-2" d="M696.9,263.7h-23.2v59.3h-4.6v-59.3h-23.2v-4.1h51v4.1Z"/>
                <path class="cls-2" d="M704.9,323v-63.4h26.3c2.7,0,5.2.6,7.5,1.7,2.2,1.1,4.2,2.6,5.8,4.5,1.6,1.9,2.9,4,3.8,6.3.9,2.3,1.4,4.7,1.4,7.1s-.6,6.1-1.9,8.8c-1.2,2.7-3,5-5.2,6.9-2.2,1.8-4.8,3-7.8,3.4l15.8,24.6h-5.3l-15.4-23.9h-20.5v23.9h-4.6ZM709.5,294.9h22.2c2.7,0,5.1-.7,7.1-2.2,2-1.5,3.6-3.4,4.7-5.8s1.7-4.9,1.7-7.6-.6-5.3-1.9-7.6c-1.3-2.4-3-4.3-5.1-5.7-2.1-1.5-4.5-2.2-7.1-2.2h-21.6v31.2Z"/>
                <path class="cls-2" d="M786.7,323.4c-5.1,0-9.3-.9-12.7-2.7s-6.1-4.2-8.1-7.3c-2-3.1-3.5-6.5-4.4-10.3-.9-3.8-1.3-7.7-1.3-11.7v-31.9h4.6v31.9c0,3.5.4,6.8,1.1,10.2.7,3.3,1.9,6.3,3.5,9,1.6,2.6,3.9,4.7,6.7,6.3,2.8,1.5,6.4,2.3,10.6,2.3s7.8-.8,10.7-2.4c2.8-1.6,5.1-3.7,6.7-6.4,1.6-2.6,2.8-5.6,3.5-8.9.7-3.3,1-6.7,1-10v-31.9h4.6v31.9c0,4.2-.5,8.3-1.4,12.1-.9,3.8-2.4,7.2-4.5,10.2-2.1,3-4.8,5.3-8.1,7.1-3.3,1.7-7.4,2.6-12.3,2.6Z"/>
                <path class="cls-2" d="M863.7,270.1c-1-1.1-2.1-2.1-3.4-3-1.2-.9-2.6-1.6-4-2.1-1.4-.6-3-1-4.6-1.3-1.7-.3-3.5-.4-5.4-.4-6.2,0-10.7,1.2-13.5,3.5-2.8,2.3-4.2,5.5-4.2,9.5s.6,4.8,1.9,6.4c1.3,1.6,3.3,2.8,6,3.8,2.7,1,6.3,1.9,10.6,2.8,4.6,1,8.5,2.1,11.9,3.3,3.3,1.3,5.9,3,7.7,5.2,1.8,2.2,2.7,5.2,2.7,8.9s-.5,5.2-1.6,7.4c-1.1,2.1-2.6,3.8-4.6,5.2-2,1.4-4.4,2.4-7.2,3.1-2.8.7-5.8,1.1-9.2,1.1s-6.4-.4-9.4-1.1c-3-.7-5.8-1.8-8.4-3.1-2.6-1.4-5.1-3.1-7.3-5.3l2.4-3.7c1.3,1.4,2.8,2.7,4.4,3.8,1.6,1.1,3.4,2,5.4,2.8,1.9.8,4,1.4,6.2,1.8,2.2.4,4.5.7,6.9.7,5.5,0,9.9-1,13-3.1,3.1-2,4.7-5.1,4.7-9.1s-.7-5.1-2.1-6.8-3.6-3.1-6.6-4.2c-3-1.1-6.7-2.1-11.2-3.1-4.5-1-8.3-2-11.4-3.2-3.1-1.2-5.5-2.8-7.1-4.8-1.6-2-2.4-4.8-2.4-8.2s.9-7,2.8-9.7,4.5-4.7,7.9-6c3.4-1.4,7.3-2.1,11.7-2.1s5.3.3,7.6.8c2.4.5,4.5,1.4,6.5,2.5,2,1.1,3.9,2.5,5.6,4.2l-2.3,3.6Z"/>
                <path class="cls-2" d="M923.1,263.7h-23.2v59.3h-4.6v-59.3h-23.2v-4.1h51v4.1Z"/>
                <path class="cls-2" d="M973.4,318.9v4.1h-42.2v-63.4h41.4v4.1h-36.9v24.9h32.2v3.9h-32.2v26.3h37.7Z"/>
                <path class="cls-2" d="M984,323v-63.4h21.1c6.7,0,12.3,1.4,16.7,4.2,4.4,2.8,7.8,6.6,10,11.4,2.2,4.8,3.3,10.1,3.3,15.9s-1.2,12-3.7,16.8c-2.4,4.8-5.9,8.5-10.4,11.1-4.5,2.6-9.9,3.9-16,3.9h-21.1ZM1030.6,291.2c0-5.3-1-10-3-14.2-2-4.2-4.9-7.4-8.7-9.8-3.8-2.4-8.4-3.5-13.9-3.5h-16.5v55.2h16.5c5.5,0,10.2-1.2,14-3.7,3.8-2.4,6.7-5.8,8.6-10,1.9-4.2,2.9-8.9,2.9-14.1Z"/>
                <path class="cls-2" d="M1067.1,323v-63.4h4.6v63.4h-4.6Z"/>
                <path class="cls-2" d="M1130.7,263.7h-23.2v59.3h-4.6v-59.3h-23.2v-4.1h51v4.1Z"/>
                <path class="cls-2" d="M1153,290.8c0-3.8.7-7.6,2-11.3,1.3-3.7,3.3-7.1,5.8-10.2,2.6-3.1,5.7-5.5,9.4-7.4,3.7-1.8,8-2.8,12.7-2.8s10.5,1.3,14.5,3.9c4,2.6,7,5.9,8.9,10l-3.8,2.1c-1.5-2.9-3.3-5.2-5.5-7-2.2-1.7-4.5-3-7-3.7-2.5-.7-5-1.1-7.5-1.1-4,0-7.5.8-10.7,2.4-3.1,1.6-5.8,3.8-7.9,6.4-2.1,2.7-3.8,5.7-4.9,8.9-1.1,3.3-1.7,6.6-1.7,9.9s.7,7.3,2,10.7c1.3,3.4,3.1,6.4,5.4,9,2.3,2.6,5,4.7,8,6.3,3.1,1.5,6.4,2.3,10,2.3s5.2-.4,7.8-1.3c2.6-.9,5.1-2.2,7.5-4,2.3-1.8,4.2-4.2,5.6-7.1l3.9,1.9c-1.4,3.2-3.4,5.8-6.2,8-2.7,2.2-5.8,3.9-9.1,5-3.3,1.1-6.6,1.7-9.9,1.7s-8.2-.9-11.9-2.8c-3.6-1.9-6.8-4.4-9.4-7.5-2.6-3.1-4.7-6.6-6.1-10.5-1.4-3.9-2.1-7.8-2.1-11.8Z"/>
                <path class="cls-2" d="M1241.8,323.4c-4.4,0-8.4-.9-12.1-2.7-3.6-1.8-6.8-4.2-9.4-7.3-2.6-3-4.6-6.5-6.1-10.3s-2.1-7.8-2.1-11.8.7-8.3,2.2-12.1c1.5-3.8,3.6-7.3,6.3-10.3,2.7-3,5.9-5.4,9.5-7.1,3.6-1.8,7.5-2.6,11.7-2.6s8.5.9,12.1,2.8c3.6,1.8,6.7,4.3,9.3,7.4,2.6,3.1,4.6,6.5,6.1,10.4,1.4,3.8,2.1,7.7,2.1,11.6s-.7,8.3-2.2,12.2c-1.5,3.8-3.6,7.3-6.3,10.3-2.7,3-5.9,5.4-9.5,7.1-3.6,1.7-7.5,2.6-11.7,2.6ZM1216.7,291.3c0,3.6.6,7.1,1.9,10.4,1.3,3.3,3,6.3,5.2,8.9,2.2,2.6,4.9,4.7,7.9,6.3,3.1,1.5,6.4,2.3,10.1,2.3s7.2-.8,10.3-2.4c3.1-1.6,5.7-3.8,7.9-6.4,2.2-2.7,3.9-5.7,5-9,1.2-3.3,1.7-6.7,1.7-10.1s-.6-7.1-1.8-10.4c-1.2-3.3-3-6.3-5.2-8.9-2.3-2.6-4.9-4.7-8-6.3-3.1-1.5-6.4-2.3-10-2.3s-7.3.8-10.4,2.4c-3.1,1.6-5.7,3.8-7.9,6.4-2.2,2.7-3.9,5.7-5.1,9-1.2,3.3-1.8,6.7-1.8,10.1Z"/>
                <path class="cls-2" d="M1286.6,268.1v54.9h-4.6v-63.4h3.8l44.2,55.8v-55.8h4.6v63.4h-4.5l-43.5-54.9Z"/>
                <path class="cls-2" d="M1386.1,270.1c-1-1.1-2.1-2.1-3.4-3-1.2-.9-2.6-1.6-4-2.1-1.4-.6-3-1-4.6-1.3-1.7-.3-3.5-.4-5.4-.4-6.2,0-10.7,1.2-13.5,3.5-2.8,2.3-4.2,5.5-4.2,9.5s.6,4.8,1.9,6.4c1.3,1.6,3.3,2.8,6,3.8,2.7,1,6.3,1.9,10.6,2.8,4.6,1,8.5,2.1,11.9,3.3,3.3,1.3,5.9,3,7.7,5.2,1.8,2.2,2.7,5.2,2.7,8.9s-.5,5.2-1.6,7.4c-1.1,2.1-2.6,3.8-4.6,5.2-2,1.4-4.4,2.4-7.2,3.1-2.8.7-5.8,1.1-9.2,1.1s-6.4-.4-9.4-1.1c-3-.7-5.8-1.8-8.4-3.1-2.6-1.4-5.1-3.1-7.3-5.3l2.4-3.7c1.3,1.4,2.8,2.7,4.4,3.8,1.6,1.1,3.4,2,5.4,2.8,1.9.8,4,1.4,6.2,1.8,2.2.4,4.5.7,6.9.7,5.5,0,9.9-1,13-3.1,3.1-2,4.7-5.1,4.7-9.1s-.7-5.1-2.1-6.8-3.6-3.1-6.6-4.2c-3-1.1-6.7-2.1-11.2-3.1-4.5-1-8.3-2-11.4-3.2-3.1-1.2-5.5-2.8-7.1-4.8-1.6-2-2.4-4.8-2.4-8.2s.9-7,2.8-9.7,4.5-4.7,7.9-6c3.4-1.4,7.3-2.1,11.7-2.1s5.3.3,7.6.8c2.4.5,4.5,1.4,6.5,2.5,2,1.1,3.9,2.5,5.6,4.2l-2.3,3.6Z"/>
                <path class="cls-2" d="M1427,323.4c-5.1,0-9.3-.9-12.7-2.7s-6.1-4.2-8.1-7.3c-2-3.1-3.5-6.5-4.4-10.3-.9-3.8-1.3-7.7-1.3-11.7v-31.9h4.6v31.9c0,3.5.4,6.8,1.1,10.2.7,3.3,1.9,6.3,3.5,9,1.6,2.6,3.9,4.7,6.7,6.3,2.8,1.5,6.4,2.3,10.6,2.3s7.8-.8,10.7-2.4c2.8-1.6,5.1-3.7,6.7-6.4,1.6-2.6,2.8-5.6,3.5-8.9.7-3.3,1-6.7,1-10v-31.9h4.6v31.9c0,4.2-.5,8.3-1.4,12.1-.9,3.8-2.4,7.2-4.5,10.2-2.1,3-4.8,5.3-8.1,7.1-3.3,1.7-7.4,2.6-12.3,2.6Z"/>
                <path class="cls-2" d="M1467.2,323v-63.4h4.6v59.3h37.9v4.1h-42.4Z"/>
                <path class="cls-2" d="M1551.4,263.7h-23.2v59.3h-4.6v-59.3h-23.2v-4.1h51v4.1Z"/>
                <path class="cls-2" d="M1573.2,259.6h3.9l26.8,63.4h-4.8l-8.6-20.9h-30.6l-8.7,20.9h-4.9l27-63.4ZM1588.9,298.4l-13.7-33.2-13.8,33.2h27.5Z"/>
                <path class="cls-2" d="M1616.3,268.1v54.9h-4.6v-63.4h3.8l44.2,55.8v-55.8h4.6v63.4h-4.5l-43.5-54.9Z"/>
                <path class="cls-2" d="M1674.6,290.8c0-3.8.7-7.6,2-11.3,1.3-3.7,3.3-7.1,5.8-10.2,2.6-3.1,5.7-5.5,9.4-7.4,3.7-1.8,8-2.8,12.7-2.8s10.5,1.3,14.5,3.9c4,2.6,7,5.9,8.9,10l-3.8,2.1c-1.5-2.9-3.3-5.2-5.5-7-2.2-1.7-4.5-3-7-3.7-2.5-.7-5-1.1-7.5-1.1-4,0-7.5.8-10.7,2.4-3.1,1.6-5.8,3.8-7.9,6.4-2.1,2.7-3.8,5.7-4.9,8.9-1.1,3.3-1.7,6.6-1.7,9.9s.7,7.3,2,10.7c1.3,3.4,3.1,6.4,5.4,9,2.3,2.6,5,4.7,8,6.3,3.1,1.5,6.4,2.3,10,2.3s5.2-.4,7.8-1.3c2.6-.9,5.1-2.2,7.5-4,2.3-1.8,4.2-4.2,5.6-7.1l3.9,1.9c-1.4,3.2-3.4,5.8-6.2,8-2.7,2.2-5.8,3.9-9.1,5-3.3,1.1-6.6,1.7-9.9,1.7s-8.2-.9-11.9-2.8c-3.6-1.9-6.8-4.4-9.4-7.5-2.6-3.1-4.7-6.6-6.1-10.5-1.4-3.9-2.1-7.8-2.1-11.8Z"/>
                <path class="cls-2" d="M1735.7,259.6l22.1,35.1,22.2-35.1h5.1l-25,39.5v23.9h-4.6v-24.1l-24.9-39.3h5Z"/>
              </g>
            </g>
          </g>
          <g>
            <path class="cls-2" d="M458.3,87.2v142.4h-24.5V87.2h-26.8v-21.7h78.4v21.7h-27.1ZM497.8,229.7V65.6h67.4v21.7h-43v47.9h36.9v21.3h-36.9v51.5h43.6v21.7h-68.1.1ZM648.3,229.7h-51.1c-9.7,0-14.6-5-14.6-15V80.7c0-10,4.9-15,14.6-15h51.1c10,0,15,5,15,14.9v38.4h-24.5v-32.4h-31.8v122.4h31.8v-34.6h24.5v40.5c0,9.9-5,14.9-15,14.9h0ZM740.5,229.7v-73.7h-33.3v73.7h-24.5V65.6h24.5v67.7h33.3v-67.7h24.7v164.1h-24.7Z"/>
            <path class="cls-2" d="M903.7,225.8c-2.6,2.6-6.2,3.9-11,3.9h-49.4c-4.7,0-8.4-1.3-11-3.9s-3.9-6.4-3.9-11.3v-39.1h24.5v33.5h30.1v-32.2l-49.2-46.5c-2-1.9-3.4-3.7-4.2-5.6s-1.2-4.4-1.2-7.5v-36.5c0-4.9,1.3-8.6,3.9-11.1,2.6-2.6,6.2-3.9,11-3.9h49.4c4.7,0,8.4,1.3,11,3.9s3.9,6.3,3.9,11.1v36.8h-24.5v-30.9h-30.1v29.6l49.2,46.3c2,2,3.4,3.9,4.2,5.8.8,1.9,1.2,4.4,1.2,7.5v39c0,4.9-1.3,8.6-3.9,11.2h0Z"/>
            <path class="cls-2" d="M994.2,229.7h-52.2c-9.9,0-14.8-5-14.8-15V65.6h24.5v143.3h33.1V65.6h24.5v149.1c0,10-5,15-15,15h0Z"/>
            <path class="cls-2" d="M1104.3,166.2c-2.6,2.7-6.3,4-11.2,4h-39.7v59.5h-24.5V65.6h64.2c10,0,15,5,15,15v74.3c0,4.9-1.3,8.6-3.9,11.3h0ZM1083.5,86.4h-30.1v62.9h30.1v-62.9Z"/>
            <path class="cls-2" d="M1201,166.2c-2.6,2.7-6.3,4-11.2,4h-39.7v59.5h-24.5V65.6h64.2c10,0,15,5,15,15v74.3c0,4.9-1.3,8.6-3.9,11.3h0ZM1180.2,86.4h-30.1v62.9h30.1v-62.9Z"/>
            <path class="cls-2" d="M1301.1,225.8c-2.6,2.6-6.2,3.9-11,3.9h-53.3c-9.7,0-14.6-5-14.6-15V80.7c0-10,4.9-15,14.6-15h53.3c4.7,0,8.4,1.3,11,3.9s3.9,6.3,3.9,11.2v134c0,4.9-1.3,8.6-3.9,11.2v-.2h0ZM1280.5,86.4h-33.7v122.4h33.7v-122.4Z"/>
            <path class="cls-2" d="M1383.1,229.7l-27.1-76.4v-14.8h24.1v-52.1h-30.9v143.3h-24.5V65.6h65.1c9.9,0,14.8,5,14.8,15v59.7c0,9.7-4.9,14.8-14.6,15h-8.4l27.1,73.5v.9h-25.6Z"/>
            <path class="cls-2" d="M1468,87.2v142.4h-24.5V87.2h-26.8v-21.7h78.4v21.7h-27.1Z"/>
            <path class="cls-2" d="M1552.2,229.7V65.6h24.5v164.1h-24.5Z"/>
            <path class="cls-2" d="M1658.6,229.7l-39.2-103.3c0,1.4.4,2.9.6,4.3.3,1.1.5,2.4.6,3.8,0,1.4.2,2.6.2,3.8v91.5h-24.1V65.7h21.4l39.2,101.2c-.3-1.4-.6-2.9-.9-4.3-.3-1.1-.5-2.4-.5-3.8v-93.2h24.1v164.1h-21.4,0,0Z"/>
            <path class="cls-2" d="M1765.5,229.7h-51.1c-9.7,0-14.6-5-14.6-15V80.7c0-10,4.9-15,14.6-15h51.1c10,0,15,5,15,14.9v38.4h-24.5v-32.4h-31.8v122.4h31.8v-34.6h24.5v40.5c0,9.9-5,14.9-15,14.9h0Z"/>
          </g>
        </g>
      </g>
    </g>
  </g>
</svg>