<?xml version="1.0" encoding="UTF-8"?>
<svg xmlns="http://www.w3.org/2000/svg" version="1.1" viewBox="0 0 386.3 366.9">
  <defs>
    <style>
      .cls-1 {
        fill: #2e4fa3;
      }

      .cls-2 {
        fill: #4470eb;
      }
    </style>
  </defs>
  <!-- Generator: Adobe Illustrator 28.6.0, SVG Export Plug-In . SVG Version: 1.2.0 Build 709)  -->
  <g>
    <g id="Layer_1">
      <g id="Layer_1-2" data-name="Layer_1">
        <g id="Layer_1-2">
          <g>
            <circle class="cls-2" cx="188.9" cy="182.8" r="43.3"/>
            <path class="cls-2" d="M189.5,6.8C92.5,6.5,13.8,84,12.9,181c-.3,32.8,8.3,63.5,23.6,89.8,4.1-7,8.6-13.8,13.5-20.2,5.1-6.6,10.8-12.8,16.8-18.7h.1c9.8-9.4,14.7-22.9,13.2-36.3-.5-4.2-.7-8.5-.7-12.8,0-60.4,49-109.4,109.4-109.4s109.4,49,109.4,109.4-.2,8.6-.7,12.8c-1.5,13.4,3.4,26.8,13.2,36.2h.1c6.1,5.9,11.7,12.1,16.8,18.8,5,6.4,9.6,13.1,13.5,20.2,14.9-25.9,23.6-56,23.6-87.9,0-97-78.5-175.7-175.4-176h.2,0Z"/>
            <path class="cls-1" d="M188.9,34.5c92.5,0,168.4,71.4,175.4,162.1.3-4.5.6-9.1.6-13.8,0-97-78.5-175.7-175.4-176C92.5,6.5,13.8,84,12.9,181c0,5.2.1,10.5.6,15.6C20.5,105.8,96.4,34.3,188.9,34.3h0Z"/>
            <path class="cls-2" d="M210.8,312.5v-67.9c-6.9,2.4-14.2,3.7-21.9,3.7s-.8,0-1.2,0c-11.4-.2-20.8,8.9-20.8,20.3h0v68.3c0,12,9.7,21.8,21.7,21.8h.2c7.5,0,14.7-.5,21.9-1.4,39-4.8,73.9-22.4,100.7-48.4-5.6-14.5-13.8-27.8-23.9-39.3-19.5,22.2-46.3,37.6-76.7,42.7h0Z"/>
          </g>
        </g>
      </g>
    </g>
  </g>
</svg>